<svg width="764" height="860" viewBox="0 0 764 860" fill="none" xmlns="http://www.w3.org/2000/svg">
<path fill-rule="evenodd" clip-rule="evenodd" d="M610.071 306.969C605.558 295.699 597.364 286.045 586.512 279.779L409.012 177.286C391.994 167.46 371.025 167.46 354.007 177.286L176.507 279.779C165.373 286.207 157.037 296.203 152.604 307.85L3 228.323C8.77051 211.357 20.5312 196.736 36.5205 187.508L344.021 10.0422C367.22 -3.34741 395.799 -3.34741 418.998 10.0422L726.499 187.508C742.205 196.573 753.831 210.842 759.707 227.425L610.071 306.969Z" fill="#FFD53B"/>
<path fill-rule="evenodd" clip-rule="evenodd" d="M229.801 349.885L380.509 430L532.905 348.989C530.137 341.373 524.761 334.824 517.528 330.642L399.028 262.129C388.189 255.862 374.829 255.862 363.991 262.129L245.491 330.642C237.975 334.988 232.465 341.887 229.801 349.885Z" fill="#D6F0FF"/>
<path fill-rule="evenodd" clip-rule="evenodd" d="M532.753 349.07C529.943 341.628 524.631 335.24 517.528 331.133L399.028 262.618C388.189 256.352 374.829 256.352 363.991 262.618L245.491 331.133C238.105 335.403 232.656 342.14 229.942 349.961L152.319 308.698C156.674 296.725 165.13 286.432 176.507 279.863L354.007 177.37C371.025 167.543 391.994 167.543 409.012 177.37L586.512 279.863C597.606 286.269 605.923 296.217 610.368 307.811L532.753 349.07Z" fill="#BC9C24"/>
<path fill-rule="evenodd" clip-rule="evenodd" d="M610.071 306.969C607.814 301.334 604.638 296.103 600.668 291.497C609.144 301.334 614 314.027 614 327.408V532.403C614 552.052 603.518 570.208 586.502 580.033L409.002 682.525C400.643 687.353 391.33 689.809 382 689.894V859.811C394.778 859.726 407.539 856.379 418.989 849.771L726.489 672.305C749.7 658.908 764 634.146 764 607.346V252.466C764 243.802 762.505 235.352 759.699 227.429L610.071 306.969ZM405.776 175.559C406.866 176.095 407.941 176.674 409.002 177.286H409.012C407.948 176.672 406.869 176.096 405.776 175.559Z" fill="#4285F4"/>
<path fill-rule="evenodd" clip-rule="evenodd" d="M230.873 350.456L380.509 430L382 429.208V602.378C376.117 602.294 370.251 600.729 364.981 597.682L246.481 529.168C235.663 522.913 229 511.364 229 498.867V361.753C229 357.851 229.65 354.041 230.873 350.456Z" fill="#D6F0FF"/>
<path fill-rule="evenodd" clip-rule="evenodd" d="M532.897 348.992L532.754 349.069L382 429.208V601.567C387.882 601.483 393.749 599.918 399.019 596.871L517.519 528.357C528.337 522.103 535 510.554 535 498.058V360.942C535 356.803 534.269 352.767 532.897 348.992Z" fill="#D6F0FF"/>
<path fill-rule="evenodd" clip-rule="evenodd" d="M377.317 170.076C378.875 169.957 380.438 169.905 382 169.919V170.002C378.927 169.975 375.852 170.204 372.809 170.692C374.305 170.424 375.809 170.219 377.317 170.076ZM229.942 349.961L230.734 350.382C229.601 353.846 229 357.512 229 361.264V498.379C229 510.875 235.663 522.424 246.481 528.679L364.981 597.193C370.251 600.239 376.117 601.805 382 601.889V689.809C372.67 689.724 363.357 687.268 354.998 682.441L177.498 579.949C160.482 570.124 150 551.968 150 532.32V327.323C150 321.026 151.077 314.88 153.101 309.113L229.801 349.886L229.942 349.961Z" fill="#9E3136"/>
<path fill-rule="evenodd" clip-rule="evenodd" d="M382 170.002C382.383 170.006 382.766 170.013 383.149 170.024C382.766 170.013 382.383 170.005 382 170.002V170.002ZM532.746 349.074C534.215 352.964 535 357.143 535 361.433V498.547C535 511.043 528.337 522.592 517.519 528.847L399.019 597.36C393.749 600.407 387.882 601.973 382 602.057V689.977C391.33 689.892 400.643 687.437 409.002 682.609L586.502 580.117C603.518 570.292 614 552.136 614 532.487V327.492C614 320.657 612.731 314.002 610.36 307.815L532.754 349.07L532.746 349.074Z" fill="#3870B2"/>
<path fill-rule="evenodd" clip-rule="evenodd" d="M381.96 169.918C372.313 169.839 362.65 172.295 354.007 177.286L176.507 279.778C165.373 286.207 157.037 296.203 152.604 307.85L3.84033 228.768C1.33105 236.301 0 244.288 0 252.465V607.346C0 634.144 14.2998 658.908 37.511 672.304L345.011 849.769C356.461 856.378 369.222 859.725 382 859.809V689.892C372.67 689.808 363.357 687.351 354.998 682.524L177.498 580.033C160.482 570.208 150 552.052 150 532.403V327.407C150 321.083 151.086 314.914 153.126 309.127L152.319 308.698C156.675 296.725 165.13 286.431 176.507 279.862L354.007 177.37C361.274 173.174 369.262 170.768 377.355 170.156C378.887 170.013 380.423 169.933 381.96 169.918Z" fill="#D43F46"/>
<path d="M363.981 262.129C374.82 255.862 388.18 255.862 399.019 262.129L517.519 330.643C528.337 336.898 535 348.446 535 360.943V498.057C535 510.554 528.337 522.102 517.519 528.357L399.019 596.871C388.18 603.138 374.82 603.138 363.981 596.871L245.481 528.357C234.663 522.102 228 510.554 228 498.057V360.943C228 348.446 234.663 336.898 245.481 330.643L363.981 262.129Z" fill="#262626"/>
</svg>
