<?xml version="1.0" standalone="no"?>
<!DOCTYPE svg PUBLIC "-//W3C//DTD SVG 20010904//EN"
 "http://www.w3.org/TR/2001/REC-SVG-20010904/DTD/svg10.dtd">
<svg version="1.0" xmlns="http://www.w3.org/2000/svg"
 width="860.000000pt" height="860.000000pt" viewBox="0 0 860.000000 860.000000"
 preserveAspectRatio="xMidYMid meet">
<metadata>
Created by potrace 1.14, written by Peter Selinger 2001-2017
</metadata>
<g transform="translate(0.000000,860.000000) scale(0.100000,-0.100000)"
fill="#000000" stroke="none">
<path d="M4145 8584 c-33 -7 -69 -16 -79 -19 -35 -8 -244 -116 -278 -142 -7
-6 -38 -23 -68 -39 -30 -16 -57 -31 -60 -34 -3 -3 -16 -11 -29 -18 -13 -8 -38
-22 -55 -31 -17 -10 -76 -44 -131 -76 -55 -32 -125 -71 -155 -88 -30 -16 -62
-35 -70 -42 -8 -7 -28 -19 -45 -27 -61 -31 -130 -72 -133 -80 -2 -4 -12 -8
-23 -8 -10 0 -19 -3 -19 -8 0 -4 -17 -16 -37 -27 -21 -11 -102 -57 -180 -102
-78 -46 -147 -83 -153 -83 -5 0 -10 -4 -10 -10 0 -5 -4 -10 -10 -10 -5 0 -38
-17 -72 -38 -35 -21 -70 -41 -78 -45 -8 -4 -28 -15 -45 -26 -16 -10 -46 -27
-65 -38 -19 -11 -122 -70 -228 -131 -107 -62 -196 -112 -198 -112 -3 0 -10 -5
-17 -11 -10 -8 -395 -232 -547 -317 -25 -14 -57 -33 -72 -43 -14 -11 -33 -19
-42 -19 -9 0 -16 -4 -16 -8 0 -4 -26 -21 -57 -37 -32 -17 -60 -33 -63 -36 -3
-3 -43 -28 -90 -54 -169 -95 -252 -148 -302 -194 -54 -49 -138 -153 -138 -170
0 -5 -6 -16 -13 -23 -18 -19 -50 -94 -53 -126 -1 -15 -9 -54 -18 -87 -13 -53
-15 -277 -13 -1940 2 -1034 6 -1896 11 -1915 33 -141 127 -305 225 -391 82
-72 88 -76 291 -191 70 -40 435 -251 455 -263 11 -7 22 -12 25 -12 3 0 37 -20
75 -45 39 -24 72 -45 75 -44 3 0 16 -7 30 -16 84 -51 132 -78 140 -78 6 0 10
-3 10 -8 0 -4 15 -13 33 -21 17 -8 39 -19 47 -26 8 -7 42 -27 74 -44 33 -17
64 -35 70 -40 6 -4 32 -20 59 -35 26 -14 68 -38 95 -52 26 -15 55 -33 65 -42
9 -8 17 -11 17 -7 0 4 8 1 18 -7 9 -8 60 -39 112 -68 52 -29 107 -62 123 -72
15 -11 27 -16 27 -11 0 4 4 3 8 -3 4 -5 27 -22 52 -35 49 -28 221 -128 285
-166 22 -13 55 -30 73 -38 17 -9 32 -20 32 -25 0 -6 7 -10 16 -10 9 0 28 -8
42 -19 15 -10 47 -29 72 -43 25 -14 127 -73 228 -131 101 -59 186 -107 188
-107 3 0 28 -15 57 -33 29 -18 59 -36 67 -41 8 -4 24 -12 35 -19 11 -7 38 -23
60 -35 22 -12 58 -33 80 -47 22 -13 56 -31 75 -40 19 -9 37 -19 40 -23 6 -8
89 -40 140 -53 19 -5 44 -12 55 -15 11 -3 59 -7 107 -9 75 -3 128 4 243 29 12
3 57 22 110 47 49 22 62 30 570 324 226 130 429 248 452 260 22 13 59 35 82
49 22 14 43 26 45 26 3 0 179 101 226 130 8 5 42 24 75 43 97 55 124 71 252
146 67 39 126 71 132 71 6 0 11 5 11 10 0 6 6 10 14 10 8 0 21 6 28 12 15 14
35 26 118 71 30 17 67 38 82 49 14 10 28 18 31 18 3 0 51 27 106 60 56 33 105
60 110 60 5 0 11 3 13 8 2 4 20 16 40 27 55 30 159 90 288 165 186 109 224
131 243 137 9 3 17 9 17 14 0 5 6 9 13 9 7 0 19 6 26 13 6 6 15 12 19 12 4 0
18 8 32 16 14 9 61 38 104 64 43 27 107 76 141 109 59 57 135 162 135 186 0 5
4 10 8 10 8 0 59 142 71 194 10 45 10 3781 0 3821 -5 22 -12 51 -15 65 -2 14
-7 32 -11 40 -3 8 -7 17 -7 20 -1 3 -8 16 -16 30 -7 14 -12 25 -11 25 4 0 -24
59 -44 92 -11 18 -23 33 -27 33 -5 0 -8 6 -8 13 0 7 -34 45 -75 84 -72 69
-132 109 -390 257 -55 31 -107 61 -115 66 -96 58 -171 100 -179 100 -6 0 -11
5 -11 10 0 6 -5 10 -11 10 -6 0 -49 23 -97 51 -48 29 -103 61 -122 72 -19 10
-71 40 -115 66 -44 26 -87 50 -95 54 -8 4 -28 16 -45 26 -64 40 -157 91 -166
91 -5 0 -9 3 -9 8 0 4 -10 12 -23 18 -43 21 -142 77 -169 96 -14 10 -31 18
-37 18 -6 0 -11 3 -11 8 0 4 -15 14 -32 21 -18 8 -68 36 -110 62 -43 27 -78
45 -78 41 0 -4 -4 -2 -8 4 -4 5 -38 28 -77 50 -38 21 -92 53 -121 69 -28 17
-102 59 -165 95 -63 35 -115 68 -117 72 -2 4 -8 8 -14 8 -5 0 -42 19 -81 42
-40 23 -88 52 -107 63 -96 55 -267 153 -308 177 -26 16 -58 33 -72 40 -14 7
-27 15 -30 18 -3 3 -16 11 -29 18 -13 8 -39 23 -58 33 -19 11 -44 25 -56 33
-41 25 -172 100 -177 101 -3 1 -27 12 -55 25 -70 32 -84 38 -135 51 -68 18
-255 20 -325 3z"/>
</g>
</svg>
